# This file uses centimeters as units for non-parametric coordinates.

mtllib TreeStump.mtl
g default
v 0.841340 -0.120748 -1.336796
v -1.517510 -0.120748 -1.435300
v -2.003068 -0.120748 0.177769
v -1.376593 -0.120748 1.798370
v 0.307251 0.103894 1.774017
v 1.486337 -0.225394 0.465750
v 0.517060 1.260503 -1.058805
v -1.005043 1.530475 -1.217897
v -1.720406 1.500463 -0.074560
v -1.080261 1.652149 1.298985
v 0.207397 1.371565 1.345877
v 1.043876 1.500463 0.218517
v -0.256204 -0.120748 0.030948
v 0.747971 3.672070 -0.912549
v -0.675794 3.709910 -1.215882
v -1.228772 3.975459 -0.285787
v -0.651082 3.732967 0.933135
v 0.477820 3.782846 1.113632
v 1.099334 3.866748 -0.032827
v 0.422222 -0.137588 -1.468184
v -1.020656 -0.159644 -1.526907
v -0.707186 0.546676 -1.489719
v 0.223864 0.474775 -1.379765
v 0.292099 0.118637 -2.874876
v -0.730987 0.092883 -2.602069
v -0.516326 0.611999 -2.685968
v 0.160866 0.578013 -2.806895
v -0.356620 -0.032703 -4.105775
v -1.128677 -0.051623 -4.200891
v -0.959364 0.329756 -4.199099
v -0.464714 0.304787 -4.095498
v -0.072024 -0.296839 -5.165258
v -0.591618 -0.309573 -5.229271
v -0.477670 -0.052905 -5.228065
v -0.144772 -0.069709 -5.158342
v 0.494451 0.101842 1.703496
v 1.186470 -0.184207 0.891346
v 1.055029 0.719595 0.806546
v 0.534584 0.738229 1.490394
v 1.840582 0.079160 2.218626
v 2.314586 0.051351 1.649828
v 2.224555 0.677374 1.661358
v 1.868072 0.551097 2.123418
v 2.722931 -0.052035 2.809850
v 3.022635 0.005196 2.430452
v 3.021903 0.402822 2.515267
v 2.783180 0.259238 2.804692
v 3.463756 -0.310015 3.290624
v 3.686160 -0.267545 3.009081
v 3.685616 0.027526 3.072020
v 3.508466 -0.079025 3.286797
v -1.253715 -0.123169 1.916302
v -0.223729 -0.000041 1.919008
v -0.284809 0.762435 1.761337
v -1.072452 0.920058 1.754917
v -1.684792 -0.067684 3.371490
v -1.033749 0.011069 3.171103
v -1.082564 0.540456 3.151905
v -1.574273 0.643637 3.323875
v -1.277713 0.150920 4.230800
v -0.752446 0.214025 4.379320
v -0.776945 0.638252 4.345158
v -1.182626 0.720933 4.246861
v -1.355405 -0.250536 5.123385
v -1.114560 -0.290791 5.189297
v -1.125793 -0.116849 5.244811
v -1.311806 -0.043495 5.221234
v -1.658584 -0.082777 -1.076586
v -1.942400 -0.225895 -0.089892
v -1.926061 0.646504 -0.244238
v -1.510678 0.871964 -0.943603
v -3.356369 -0.102906 -0.720803
v -2.874212 -0.210617 -0.116992
v -2.961850 0.445952 -0.194220
v -3.210338 0.615635 -0.753704
v -3.997193 0.064109 0.596068
v -3.655727 0.126514 1.291300
v -3.724767 0.752787 1.138263
v -3.847504 0.774422 0.529740
v -4.946973 -0.234548 0.259251
v -5.080640 -0.271268 0.824234
v -5.156463 0.184421 0.702778
v -4.957604 0.331371 0.291944
v 1.528784 -0.097451 0.156157
v 1.150746 0.008993 -0.950705
v 1.045986 0.731959 -0.801221
v 1.375652 0.786261 -0.020599
v 2.436813 -0.178004 -0.693946
v 1.865124 -0.168110 -1.248769
v 1.893054 0.353980 -1.193155
v 2.341162 0.416410 -0.832109
v 2.739466 0.029485 -1.290106
v 2.617184 0.051965 -1.834412
v 2.625026 0.417202 -1.790065
v 2.750830 0.446353 -1.406592
v 3.436777 -0.120620 -1.651066
v 3.391773 -0.073618 -1.887287
v 3.437569 0.066204 -1.868041
v 3.489986 0.038213 -1.701620
vt 1.039673 -0.111803
vt 1.064365 -0.114186
vt 1.059003 -0.066168
vt 1.043055 -0.069312
vt -0.076663 -0.100150
vt -0.045559 -0.107020
vt -0.052911 -0.021770
vt -0.074798 0.005722
vt -0.058496 -0.078860
vt 0.211267 -0.078860
vt 0.231697 0.252812
vt -0.111941 0.224435
vt 0.266360 -0.103141
vt 0.278094 -0.110672
vt 0.277758 -0.078131
vt 0.268949 -0.064408
vt 0.519930 -0.114269
vt 0.536505 -0.106323
vt 0.534103 -0.051122
vt 0.521335 -0.071055
vt 0.776985 -0.078836
vt 0.789818 -0.070043
vt 0.787845 -0.043886
vt 0.778464 -0.049122
vt 1.193679 -0.078860
vt 0.857829 -0.078860
vt 0.671696 -0.078860
vt 0.427652 -0.036835
vt 0.633470 -0.098438
vt 0.857667 0.179543
vt 1.059168 0.637777
vt 0.820631 0.630698
vt -0.223728 0.687456
vt 0.318475 0.642090
vt 0.447510 0.200321
vt 0.501262 0.651422
vt 0.654537 0.224435
vt 0.689083 0.667118
vt 1.116499 -0.086137
vt 0.907075 -0.082011
vt 1.066518 0.046001
vt 0.921934 0.032550
vt 1.070731 -0.038895
vt 0.986676 -0.034077
vt 1.051129 0.058221
vt 0.995096 0.051863
vt 1.094124 -0.065929
vt 1.048488 -0.062389
vt 1.084260 0.005420
vt 1.054889 0.000748
vt 0.577306 -0.090732
vt 0.450895 -0.037219
vt 0.580092 0.078350
vt 0.470832 0.081836
vt 0.561781 -0.046664
vt 0.508644 -0.041462
vt 0.557937 0.070452
vt 0.515274 0.046828
vt 0.542358 -0.055299
vt 0.515632 -0.066006
vt 0.538443 0.019089
vt 0.517933 -0.007773
vt 0.360625 -0.056279
vt 0.230677 -0.079313
vt 0.358139 0.086365
vt 0.249078 0.115853
vt 0.272908 -0.054200
vt 0.228246 -0.068933
vt 0.268977 0.044837
vt 0.234985 0.064140
vt 0.295149 -0.016231
vt 0.264604 -0.028037
vt 0.293748 0.063133
vt 0.270181 0.078601
vt -0.111288 -0.098531
vt -0.142818 0.064677
vt -0.105747 -0.095673
vt -0.158255 -0.075523
vt -0.113692 0.027158
vt -0.165001 0.058902
vt 0.010772 -0.032603
vt -0.047359 -0.044278
vt -0.002192 0.084560
vt -0.050384 0.088607
vt 0.799622 -0.054589
vt 0.667479 -0.074502
vt 0.788799 0.080664
vt 0.686940 0.090822
vt 0.794671 -0.087721
vt 0.737334 -0.089572
vt 0.789358 0.009951
vt 0.749373 0.021631
vt 0.807581 -0.046549
vt 0.771812 -0.050755
vt 0.804820 0.021779
vt 0.778708 0.027232
vt 1.438059 0.224435
vt 1.326272 0.687456
vt 1.491504 -0.078860
vt 0.151428 0.727463
vt 0.392425 0.959984
vt 0.766222 0.715335
vt 1.124593 0.230049
vt 0.850601 0.396619
vt 1.407182 0.064677
vt 1.438712 -0.098531
vt 1.444253 -0.095673
vt 1.239841 0.106856
vt 1.384999 0.058902
vt 1.436308 0.027158
vt 1.245145 -0.071757
vt 1.391745 -0.075523
vt 0.561306 0.080723
vt 0.246135 0.271491
vn 0.154995 0.003386 -0.987909
vn 0.154995 0.003386 -0.987909
vn 0.154995 0.003386 -0.987909
vn 0.154995 0.003386 -0.987909
vn -0.934545 -0.108532 -0.338890
vn -0.934545 -0.108532 -0.338890
vn -0.934545 -0.108532 -0.338890
vn -0.934545 -0.108532 -0.338890
vn -0.899394 0.235055 0.368565
vn -0.899394 0.235055 0.368565
vn -0.888148 0.232787 0.396237
vn -0.888451 0.232849 0.395520
vn -0.278467 -0.338203 0.898930
vn -0.278467 -0.338203 0.898930
vn -0.278467 -0.338203 0.898930
vn -0.278467 -0.338203 0.898930
vn 0.791176 -0.133490 0.596843
vn 0.791176 -0.133490 0.596843
vn 0.791176 -0.133490 0.596843
vn 0.791176 -0.133490 0.596843
vn 0.902252 -0.328392 -0.279464
vn 0.902252 -0.328392 -0.279464
vn 0.902252 -0.328392 -0.279464
vn 0.902252 -0.328392 -0.279464
vn 0.000000 -1.000000 -0.000000
vn -0.024170 -0.999520 -0.019395
vn -0.005363 -0.999544 0.029713
vn 0.000000 -1.000000 0.000000
vn 0.069585 -0.996600 0.044111
vn 0.031680 -0.992547 0.117676
vn -0.075696 -0.995083 0.063871
vn 0.156370 0.012817 -0.987615
vn 0.156370 0.012817 -0.987615
vn 0.156370 0.012817 -0.987616
vn 0.156370 0.012817 -0.987615
vn -0.840071 0.124426 -0.528015
vn -0.840071 0.124426 -0.528015
vn -0.840071 0.124426 -0.528015
vn -0.840071 0.124426 -0.528015
vn -0.877577 0.230616 0.420328
vn -0.877577 0.230616 0.420328
vn -0.079107 0.143661 0.986460
vn -0.079107 0.143661 0.986460
vn -0.079107 0.143661 0.986460
vn -0.079107 0.143661 0.986460
vn 0.841925 -0.002811 0.539587
vn 0.841925 -0.002811 0.539587
vn 0.841925 -0.002811 0.539587
vn 0.841925 -0.002811 0.539587
vn 0.928721 -0.063699 -0.365267
vn 0.928721 -0.063699 -0.365267
vn 0.928721 -0.063699 -0.365267
vn 0.928721 -0.063699 -0.365267
vn -0.004339 -0.970501 0.241059
vn -0.004339 -0.970501 0.241059
vn -0.004339 -0.970501 0.241059
vn -0.004339 -0.970501 0.241059
vn -0.210909 0.177691 -0.961220
vn -0.210909 0.177691 -0.961220
vn -0.210909 0.177691 -0.961220
vn -0.210909 0.177691 -0.961220
vn 0.146693 0.314556 -0.937836
vn 0.146693 0.314556 -0.937836
vn 0.146693 0.314556 -0.937836
vn 0.146693 0.314556 -0.937836
vn 0.303845 0.248687 -0.919692
vn 0.303845 0.248687 -0.919692
vn 0.303845 0.248687 -0.919692
vn 0.303845 0.248687 -0.919692
vn 0.001568 -0.979648 -0.200716
vn 0.001568 -0.979648 -0.200716
vn 0.014248 -0.996010 -0.088092
vn 0.016256 -0.997415 -0.069992
vn -0.911392 0.387503 -0.138585
vn -0.911392 0.387504 -0.138585
vn -0.916092 0.399349 0.035981
vn -0.917212 0.398305 0.008744
vn 0.066006 0.995555 0.067185
vn 0.066006 0.995555 0.067185
vn 0.058153 0.997040 -0.050289
vn 0.058323 0.997149 -0.047883
vn 0.954340 0.297472 -0.027303
vn 0.954340 0.297472 -0.027303
vn 0.925839 0.304792 -0.223436
vn 0.930765 0.304574 -0.202267
vn 0.019628 -0.989169 0.145461
vn 0.021957 -0.990374 0.136668
vn -0.897248 0.399694 0.187590
vn -0.897248 0.399694 0.187590
vn 0.065936 0.968820 -0.238833
vn 0.073000 0.965849 -0.248608
vn 0.831392 0.295890 -0.470358
vn 0.831392 0.295890 -0.470358
vn -0.005832 -0.970651 0.240423
vn -0.005832 -0.970651 0.240423
vn -0.790042 0.353093 -0.501157
vn -0.790042 0.353093 -0.501157
vn -0.790042 0.353093 -0.501157
vn -0.790042 0.353093 -0.501157
vn 0.110749 0.947343 -0.300461
vn 0.110749 0.947343 -0.300461
vn 0.938610 0.295190 0.178534
vn 0.938610 0.295190 0.178534
vn 0.938610 0.295190 0.178534
vn 0.938610 0.295190 0.178534
vn -0.303453 -0.952807 0.008728
vn -0.303453 -0.952807 0.008728
vn -0.060530 -0.982019 0.178813
vn -0.065904 -0.982314 0.175260
vn 0.871153 0.243928 0.426136
vn 0.871153 0.243928 0.426136
vn 0.871153 0.243928 0.426136
vn 0.871153 0.243928 0.426136
vn 0.699886 0.453345 0.551941
vn 0.699886 0.453345 0.551941
vn 0.699886 0.453345 0.551941
vn 0.699886 0.453345 0.551941
vn 0.258485 0.315588 0.913011
vn 0.258485 0.315588 0.913011
vn 0.258485 0.315588 0.913011
vn 0.258485 0.315588 0.913011
vn -0.030860 -0.993049 0.113588
vn -0.029417 -0.991431 0.127277
vn 0.571644 0.043515 -0.819347
vn 0.571644 0.043515 -0.819347
vn 0.623367 0.067587 -0.779003
vn 0.636550 0.073903 -0.767687
vn 0.024440 0.993405 0.112020
vn 0.024440 0.993405 0.112020
vn 0.017924 0.981459 0.190832
vn 0.018101 0.981863 0.188723
vn -0.361227 0.270296 0.892443
vn -0.361227 0.270296 0.892443
vn -0.431931 0.232686 0.871374
vn -0.413496 0.242800 0.877536
vn -0.086802 -0.986468 -0.139094
vn -0.088793 -0.985772 -0.142718
vn 0.724820 0.135676 -0.675446
vn 0.721469 0.137199 -0.678719
vn 0.031513 0.916357 0.399121
vn 0.027096 0.920561 0.389659
vn -0.532064 0.146305 0.833968
vn -0.533962 0.149624 0.832164
vn -0.157317 -0.950582 -0.267666
vn -0.157317 -0.950582 -0.267666
vn 0.684518 0.153280 -0.712700
vn 0.684518 0.153280 -0.712700
vn 0.076475 0.866649 0.493023
vn 0.076475 0.866648 0.493023
vn -0.512797 0.113356 0.850994
vn -0.512797 0.113356 0.850994
vn 0.122892 -0.971588 -0.202273
vn 0.122892 -0.971588 -0.202273
vn 0.122892 -0.971588 -0.202273
vn 0.122892 -0.971588 -0.202273
vn 0.299027 0.286366 0.910262
vn 0.299027 0.286366 0.910262
vn 0.299027 0.286366 0.910262
vn 0.299027 0.286366 0.910262
vn 0.088009 0.520153 0.849527
vn 0.088009 0.520153 0.849526
vn 0.088009 0.520153 0.849527
vn 0.088009 0.520153 0.849526
vn -0.814936 0.259768 0.518074
vn -0.814936 0.259768 0.518074
vn -0.814936 0.259768 0.518074
vn -0.814936 0.259768 0.518074
vn 0.128462 -0.988218 0.083199
vn 0.128462 -0.988218 0.083199
vn 0.127638 -0.986445 0.103125
vn 0.127035 -0.984979 0.116958
vn 0.840417 0.143057 0.522718
vn 0.840417 0.143057 0.522718
vn 0.840417 0.143057 0.522718
vn 0.840417 0.143057 0.522718
vn 0.224860 0.939882 0.257021
vn 0.224860 0.939882 0.257021
vn 0.213301 0.973771 0.079201
vn 0.219426 0.962371 0.160292
vn -0.950683 0.124246 -0.284193
vn -0.950683 0.124246 -0.284193
vn -0.950683 0.124246 -0.284193
vn -0.950683 0.124246 -0.284193
vn 0.141961 -0.983234 -0.114451
vn 0.136690 -0.990565 -0.009841
vn 0.967834 0.060746 -0.244148
vn 0.967834 0.060746 -0.244148
vn 0.991857 0.058529 -0.113110
vn 0.998420 0.055601 0.008179
vn 0.163391 0.979379 0.118830
vn 0.139663 0.947017 0.289227
vn -0.910826 0.155569 0.382354
vn -0.910826 0.155569 0.382354
vn -0.910826 0.155569 0.382354
vn -0.910826 0.155569 0.382354
vn 0.148139 -0.888355 -0.434603
vn 0.148139 -0.888355 -0.434603
vn 0.911846 0.039884 0.408590
vn 0.911846 0.039884 0.408590
vn 0.070369 0.765964 0.639021
vn 0.070369 0.765964 0.639021
vn -0.984458 0.175618 0.000586
vn -0.984458 0.175618 0.000586
vn -0.984458 0.175618 0.000586
vn -0.984458 0.175618 0.000586
vn 0.745077 -0.640744 0.185225
vn 0.745077 -0.640744 0.185225
vn 0.745077 -0.640744 0.185225
vn 0.745077 -0.640744 0.185225
vn -0.990648 0.126944 0.050025
vn -0.990648 0.126944 0.050025
vn -0.990648 0.126944 0.050025
vn -0.990648 0.126944 0.050025
vn -0.818342 0.353510 -0.453153
vn -0.818342 0.353510 -0.453153
vn -0.818342 0.353510 -0.453153
vn -0.818342 0.353510 -0.453153
vn -0.794065 0.274163 -0.542490
vn -0.794065 0.274164 -0.542490
vn -0.376617 0.153265 -0.913602
vn -0.481213 0.184842 -0.856894
vn -0.017381 -0.987974 -0.153640
vn -0.017381 -0.987974 -0.153640
vn -0.094557 -0.994412 -0.046946
vn -0.103252 -0.994049 -0.034730
vn -0.002573 0.149633 0.988738
vn -0.002573 0.149633 0.988738
vn -0.002573 0.149633 0.988738
vn -0.002573 0.149633 0.988738
vn -0.134136 0.950422 0.280547
vn -0.134136 0.950422 0.280547
vn 0.050273 0.978723 0.198933
vn 0.107501 0.979262 0.171727
vn -0.164927 0.087730 -0.982396
vn -0.164927 0.087730 -0.982396
vn -0.009332 -0.999014 0.043403
vn 0.017579 -0.999156 0.037119
vn 0.873958 0.187241 0.448483
vn 0.873958 0.187241 0.448483
vn 0.873958 0.187241 0.448484
vn 0.873958 0.187241 0.448483
vn 0.030968 0.996395 0.078978
vn -0.101010 0.990456 0.093773
vn -0.879610 0.150713 -0.451190
vn -0.879610 0.150713 -0.451190
vn -0.879610 0.150713 -0.451190
vn -0.879610 0.150713 -0.451190
vn 0.290132 -0.956567 -0.028344
vn 0.290132 -0.956567 -0.028344
vn -0.352538 0.185498 0.917228
vn -0.352538 0.185498 0.917228
vn -0.352538 0.185498 0.917228
vn -0.352538 0.185498 0.917228
vn -0.394539 0.910854 0.121177
vn -0.394539 0.910854 0.121177
vn 0.287085 -0.056483 -0.956239
vn 0.287085 -0.056483 -0.956239
vn 0.287085 -0.056483 -0.956238
vn 0.287085 -0.056483 -0.956239
vn 0.606499 -0.748703 -0.267585
vn 0.606499 -0.748703 -0.267585
vn 0.128814 -0.987363 -0.092311
vn 0.191390 -0.974628 -0.116065
vn 0.664551 0.276525 -0.694194
vn 0.664551 0.276525 -0.694194
vn 0.434538 0.268249 -0.859779
vn 0.193618 0.241827 -0.950806
vn 0.759525 0.520231 -0.390489
vn 0.759525 0.520231 -0.390489
vn 0.759525 0.520231 -0.390489
vn 0.759525 0.520231 -0.390489
vn 0.904303 0.261247 0.337617
vn 0.904303 0.261247 0.337617
vn 0.780174 0.266549 0.565933
vn 0.805715 0.266926 0.528747
vn -0.046965 -0.998267 -0.035457
vn -0.036388 -0.998508 -0.040722
vn -0.477362 0.123951 -0.869921
vn -0.490904 0.123108 -0.862472
vn 0.223668 0.942393 -0.248732
vn 0.223668 0.942393 -0.248732
vn 0.110561 0.977646 -0.178845
vn 0.140834 0.970082 -0.197754
vn 0.707509 0.249715 0.661116
vn 0.713747 0.247502 0.655216
vn 0.036098 -0.992854 -0.113747
vn 0.110671 -0.984717 -0.134479
vn -0.493146 0.121404 -0.861434
vn -0.460727 0.123040 -0.878972
vn 0.048595 0.996585 -0.066756
vn 0.116715 0.989923 -0.080192
vn 0.817451 0.203791 0.538742
vn 0.817451 0.203791 0.538742
vn -0.196162 -0.979531 -0.045154
vn -0.196162 -0.979531 -0.045154
vn -0.042854 0.129291 -0.990680
vn -0.042854 0.129291 -0.990680
vn 0.409184 0.902481 -0.134521
vn 0.409184 0.902481 -0.134521
vn 0.469590 0.197037 0.860617
vn 0.469589 0.197037 0.860617
vn 0.469590 0.197037 0.860617
vn 0.469590 0.197037 0.860617
vn 0.034326 0.998709 -0.037455
vn 0.034326 0.998709 -0.037455
vn 0.034326 0.998709 -0.037455
vn 0.034326 0.998709 -0.037455
vn 0.034326 0.998709 -0.037455
vn 0.034326 0.998709 -0.037455
s off
g pasted__pSphere1
usemtl lambert3SG
f 32/1/1 33/2/2 34/3/3 35/4/4
f 80/5/5 81/6/6 82/7/7 83/8/8
s 1
f 3/9/9 4/10/10 10/11/11 9/12/12
s off
f 64/13/13 65/14/14 66/15/15 67/16/16
f 48/17/17 49/18/18 50/19/19 51/20/20
f 96/21/21 97/22/22 98/23/23 99/24/24
s 2
f 2/25/25 1/26/26 13/27/27
f 3/99/28 2/25/25 13/27/27
f 4/10/29 3/9/28 13/27/27
f 5/28/30 4/10/29 13/27/27
f 6/29/31 5/28/30 13/27/27
f 1/26/26 6/29/31 13/27/27
s off
f 7/30/32 8/103/33 15/31/34 14/32/35
f 8/103/36 9/97/37 16/98/38 15/31/39
s 1
f 9/12/12 10/11/11 17/34/40 16/33/41
s off
f 10/11/42 11/35/43 18/36/44 17/34/45
f 11/35/46 12/37/47 19/38/48 18/36/49
f 12/37/50 7/30/51 14/32/52 19/38/53
f 1/26/54 2/25/55 21/39/56 20/40/57
f 2/25/58 8/103/59 22/41/60 21/39/61
f 8/103/62 7/30/63 23/42/64 22/41/65
f 7/30/66 1/26/67 20/40/68 23/42/69
s 3
f 20/40/70 21/39/71 25/43/72 24/44/73
s 4
f 21/39/74 22/41/75 26/45/76 25/43/77
s 5
f 22/41/78 23/42/79 27/46/80 26/45/81
s 6
f 23/42/82 20/40/83 24/44/84 27/46/85
s 3
f 24/44/73 25/43/72 29/47/86 28/48/87
s 4
f 25/43/77 26/45/76 30/49/88 29/47/89
s 5
f 26/45/81 27/46/80 31/50/90 30/49/91
s 6
f 27/46/85 24/44/84 28/48/92 31/50/93
s 3
f 28/48/87 29/47/86 33/2/94 32/1/95
s off
f 29/47/96 30/49/97 34/3/98 33/2/99
s 5
f 30/49/91 31/50/90 35/4/100 34/3/101
s off
f 31/50/102 28/48/103 32/1/104 35/4/105
s 7
f 5/28/106 6/29/107 37/51/108 36/52/109
s off
f 6/29/110 12/37/111 38/53/112 37/51/113
f 12/37/114 11/35/115 39/54/116 38/53/117
f 11/35/118 5/28/119 36/52/120 39/54/121
s 7
f 36/52/109 37/51/108 41/55/122 40/56/123
s 8
f 37/51/124 38/53/125 42/57/126 41/55/127
s 9
f 38/53/128 39/54/129 43/58/130 42/57/131
s 10
f 39/54/132 36/52/133 40/56/134 43/58/135
s 7
f 40/56/123 41/55/122 45/59/136 44/60/137
s 8
f 41/55/127 42/57/126 46/61/138 45/59/139
s 9
f 42/57/131 43/58/130 47/62/140 46/61/141
s 10
f 43/58/135 40/56/134 44/60/142 47/62/143
s 7
f 44/60/137 45/59/136 49/18/144 48/17/145
s 8
f 45/59/139 46/61/138 50/19/146 49/18/147
s 9
f 46/61/141 47/62/140 51/20/148 50/19/149
s 10
f 47/62/143 44/60/142 48/17/150 51/20/151
s off
f 4/10/152 5/28/153 53/63/154 52/64/155
f 5/28/156 11/35/157 54/65/158 53/63/159
f 11/35/160 10/11/161 55/66/162 54/65/163
f 10/11/164 4/10/165 52/64/166 55/66/167
s 11
f 52/64/168 53/63/169 57/67/170 56/68/171
s off
f 53/63/172 54/65/173 58/69/174 57/67/175
s 12
f 54/65/176 55/66/177 59/70/178 58/69/179
s off
f 55/66/180 52/64/181 56/68/182 59/70/183
s 11
f 56/68/171 57/67/170 61/71/184 60/72/185
s 13
f 57/67/186 58/69/187 62/73/188 61/71/189
s 12
f 58/69/179 59/70/178 63/74/190 62/73/191
s off
f 59/70/192 56/68/193 60/72/194 63/74/195
s 11
f 60/72/185 61/71/184 65/14/196 64/13/197
s 13
f 61/71/189 62/73/188 66/15/198 65/14/199
s 12
f 62/73/191 63/74/190 67/16/200 66/15/201
s off
f 63/74/202 60/72/203 64/13/204 67/16/205
f 2/25/206 3/99/207 69/106/208 68/111/209
f 3/9/210 9/12/211 70/76/212 69/75/213
f 9/97/214 8/103/215 71/108/216 70/105/217
s 14
f 8/103/218 2/25/219 68/111/220 71/108/221
s 15
f 68/111/222 69/106/223 73/107/224 72/112/225
s off
f 69/75/226 70/76/227 74/79/228 73/77/229
s 16
f 70/105/230 71/108/231 75/109/232 74/110/233
s 14
f 71/108/221 68/111/220 72/112/234 75/109/235
s 15
f 72/78/225 73/77/224 77/81/236 76/82/237
s off
f 73/77/238 74/79/239 78/83/240 77/81/241
s 16
f 74/79/233 75/80/232 79/84/242 78/83/243
s off
f 75/80/244 72/78/245 76/82/246 79/84/247
s 15
f 76/82/237 77/81/236 81/6/248 80/5/249
s off
f 77/81/250 78/83/251 82/7/252 81/6/253
s 16
f 78/83/243 79/84/242 83/8/254 82/7/255
s off
f 79/84/256 76/82/257 80/5/258 83/8/259
s 17
f 6/29/260 1/26/261 85/85/262 84/86/263
s 18
f 1/26/264 7/30/265 86/87/266 85/85/267
s off
f 7/30/268 12/37/269 87/88/270 86/87/271
s 19
f 12/37/272 6/29/273 84/86/274 87/88/275
s 17
f 84/86/263 85/85/262 89/89/276 88/90/277
s 18
f 85/85/267 86/87/266 90/91/278 89/89/279
s 20
f 86/87/280 87/88/281 91/92/282 90/91/283
s 19
f 87/88/275 84/86/274 88/90/284 91/92/285
s 17
f 88/90/277 89/89/276 93/93/286 92/94/287
s 18
f 89/89/279 90/91/278 94/95/288 93/93/289
s 20
f 90/91/283 91/92/282 95/96/290 94/95/291
s 19
f 91/92/285 88/90/284 92/94/292 95/96/293
s 17
f 92/94/287 93/93/286 97/22/294 96/21/295
s 18
f 93/93/289 94/95/288 98/23/296 97/22/297
s 20
f 94/95/291 95/96/290 99/24/298 98/23/299
s off
f 95/96/300 92/94/301 96/21/302 99/24/303
usemtl lambert2SG
f 17/100/304 18/101/305 19/102/306 14/104/307 15/113/308 16/114/309
