# This file uses centimeters as units for non-parametric coordinates.

mtllib Grass.mtl
g default
v -0.000729 0.008923 0.140844
v 0.100405 0.008923 0.140844
v 0.015863 0.248690 0.072222
v 0.085197 0.228661 0.070964
v 0.020190 0.493785 0.128746
v 0.073895 0.479779 0.128322
v 0.033880 0.681491 0.058164
v 0.065796 0.666407 0.058164
v 0.033880 0.681719 -0.003472
v 0.065796 0.663607 -0.003472
v 0.043734 0.457329 -0.005910
v 0.094649 0.439795 -0.005910
v 0.018998 0.289924 -0.070677
v 0.075780 0.258652 -0.083324
v -0.000729 0.008923 -0.062598
v 0.100405 0.008923 -0.062598
vt 0.357563 0.374872
vt 0.357563 0.374872
vt 0.446367 0.456607
vt 0.444769 0.464057
vt 0.373476 0.550014
vt 0.372937 0.555223
vt 0.462633 0.619433
vt 0.462633 0.625043
vt 0.540961 0.618391
vt 0.540961 0.625128
vt 0.544059 0.535141
vt 0.544059 0.541663
vt 0.642438 0.467762
vt 0.626366 0.479394
vt 0.616099 0.374872
vt 0.616099 0.374872
vn 0.040924 0.288238 0.956684
vn 0.040924 0.288238 0.956684
vn 0.011329 0.120732 0.992621
vn -0.004438 0.030807 0.999515
vn -0.001065 -0.067603 0.997712
vn 0.024201 0.016140 0.999577
vn 0.122724 0.347655 0.929556
vn 0.122724 0.347655 0.929556
vn 0.461314 0.887044 -0.018512
vn 0.461314 0.887044 -0.018512
vn 0.461314 0.887044 -0.018512
vn 0.461314 0.887044 -0.018512
vn 0.004862 0.011296 -0.999924
vn 0.004862 0.011296 -0.999924
vn 0.041190 0.251467 -0.966989
vn 0.030488 0.180580 -0.983088
vn -0.059832 0.035980 -0.997560
vn -0.021449 0.146964 -0.988909
vn -0.090490 -0.054805 -0.994388
vn -0.090490 -0.054805 -0.994388
vn 0.000000 -1.000000 0.000000
vn 0.000000 -1.000000 0.000000
vn 0.000000 -1.000000 0.000000
vn 0.000000 -1.000000 0.000000
vn 0.996541 0.080796 -0.019460
vn 0.996541 0.080796 -0.019460
vn 0.999457 0.032248 0.006756
vn 0.999181 0.040394 0.002363
vn 0.998620 0.006755 0.052088
vn 0.997489 0.035523 0.061264
vn 0.991263 0.102867 0.082564
vn 0.991263 0.102867 0.082564
vn -0.997584 0.069462 -0.000761
vn -0.997584 0.069462 -0.000761
vn -0.996463 0.078389 -0.030260
vn -0.995806 0.081686 -0.041211
vn -0.993438 0.044433 -0.105390
vn -0.992779 0.064963 -0.100841
vn -0.993052 -0.010145 -0.117237
vn -0.993052 -0.010145 -0.117237
s 1
g pCube1
usemtl blinn1SG
f 1/1/1 2/2/2 4/3/3 3/4/4
f 3/4/4 4/3/3 6/5/5 5/6/6
f 5/6/6 6/5/5 8/7/7 7/8/8
s off
f 7/8/9 8/7/10 10/9/11 9/10/12
s 2
f 9/10/13 10/9/14 12/11/15 11/12/16
f 11/12/16 12/11/15 14/13/17 13/14/18
f 13/14/18 14/13/17 16/15/19 15/16/20
s off
f 15/16/21 16/15/22 2/2/23 1/1/24
s 3
f 2/2/25 16/15/26 14/13/27 4/3/28
f 4/3/28 14/13/27 12/11/29 6/5/30
f 6/5/30 12/11/29 10/9/31 8/7/32
s 4
f 15/16/33 1/1/34 3/4/35 13/14/36
f 13/14/36 3/4/35 5/6/37 11/12/38
f 11/12/38 5/6/37 7/8/39 9/10/40
